<?xml version="1.0" standalone="no"?>
<!DOCTYPE svg PUBLIC "-//W3C//DTD SVG 20010904//EN"
 "http://www.w3.org/TR/2001/REC-SVG-20010904/DTD/svg10.dtd">
<svg version="1.0" xmlns="http://www.w3.org/2000/svg"
 width="72.000000pt" height="72.000000pt" viewBox="0 0 72.000000 72.000000"
 preserveAspectRatio="xMidYMid meet">
<metadata>
Created by potrace 1.14, written by Peter Selinger 2001-2017
</metadata>
<g transform="translate(0.000000,72.000000) scale(0.100000,-0.100000)"
fill="#000000" stroke="none">
<path d="M360 666 c-79 -84 -153 -205 -166 -272 -5 -29 -5 -29 78 -52 101 -28
206 -86 285 -158 32 -29 61 -53 65 -54 4 0 19 17 32 38 90 137 67 334 -51 442
-23 22 -47 40 -52 40 -5 0 -32 -18 -61 -41 -60 -48 -135 -146 -151 -198 -10
-34 -14 -37 -40 -33 -34 5 -35 7 -9 72 27 67 77 145 129 199 23 24 41 45 39
46 -2 1 -15 5 -30 9 -23 5 -33 -1 -68 -38z"/>
<path d="M204 674 c-27 -14 -66 -42 -87 -62 -44 -42 -93 -138 -102 -198 l-6
-42 66 2 c62 1 66 2 71 26 16 71 50 163 84 228 22 39 36 72 31 72 -4 0 -30
-12 -57 -26z"/>
<path d="M14 318 c26 -165 152 -285 316 -304 86 -9 90 5 20 69 -34 31 -87 66
-116 78 -47 20 -54 26 -54 50 0 25 3 27 28 23 70 -13 175 -77 245 -149 35 -35
46 -41 65 -34 12 5 22 12 22 17 0 19 -151 152 -216 190 -79 46 -140 69 -151
58 -4 -4 -10 -49 -14 -99 -3 -51 -7 -83 -8 -72 -1 11 -5 31 -7 45 -2 13 -6 51
-7 84 -2 67 -10 73 -90 75 -38 1 -38 1 -33 -31z"/>
</g>
</svg>
