<svg width="55" height="55" viewBox="0 0 55 55" fill="none" xmlns="http://www.w3.org/2000/svg">
<path d="M27.5 51.5625C33.8818 51.5625 40.0022 49.0273 44.5148 44.5148C49.0273 40.0022 51.5625 33.8818 51.5625 27.5C51.5625 21.1182 49.0273 14.9978 44.5148 10.4852C40.0022 5.97265 33.8818 3.4375 27.5 3.4375C21.1182 3.4375 14.9978 5.97265 10.4852 10.4852C5.97265 14.9978 3.4375 21.1182 3.4375 27.5C3.4375 33.8818 5.97265 40.0022 10.4852 44.5148C14.9978 49.0273 21.1182 51.5625 27.5 51.5625ZM27.5 0C34.7935 0 41.7882 2.89731 46.9454 8.05456C52.1027 13.2118 55 20.2065 55 27.5C55 34.7935 52.1027 41.7882 46.9454 46.9454C41.7882 52.1027 34.7935 55 27.5 55C20.2065 55 13.2118 52.1027 8.05456 46.9454C2.89731 41.7882 0 34.7935 0 27.5C0 20.2065 2.89731 13.2118 8.05456 8.05456C13.2118 2.89731 20.2065 0 27.5 0ZM30.0781 10.3125C30.0781 10.9963 29.8065 11.652 29.323 12.1355C28.8395 12.619 28.1838 12.8906 27.5 12.8906C26.8162 12.8906 26.1605 12.619 25.677 12.1355C25.1935 11.652 24.9219 10.9963 24.9219 10.3125C24.9219 9.62874 25.1935 8.97298 25.677 8.48949C26.1605 8.006 26.8162 7.73438 27.5 7.73438C28.1838 7.73438 28.8395 8.006 29.323 8.48949C29.8065 8.97298 30.0781 9.62874 30.0781 10.3125ZM24.0625 37.8125C24.0625 38.7242 24.4247 39.5985 25.0693 40.2432C25.714 40.8878 26.5883 41.25 27.5 41.25C28.4117 41.25 29.286 40.8878 29.9307 40.2432C30.5753 39.5985 30.9375 38.7242 30.9375 37.8125C30.9375 36.9008 30.5753 36.0265 29.9307 35.3818C29.286 34.7372 28.4117 34.375 27.5 34.375C26.5883 34.375 25.714 34.7372 25.0693 35.3818C24.4247 36.0265 24.0625 36.9008 24.0625 37.8125ZM20.625 37.8125C20.625 34.0205 23.708 30.9375 27.5 30.9375C29.3799 30.9375 31.0879 31.6895 32.3232 32.9141L43.8066 26.0283C44.623 25.5449 45.6758 25.8027 46.1699 26.6191C46.6641 27.4355 46.3955 28.4883 45.5791 28.9824L34.0957 35.8574C34.2783 36.4805 34.375 37.1357 34.375 37.8125C34.375 41.6045 31.292 44.6875 27.5 44.6875C23.708 44.6875 20.625 41.6045 20.625 37.8125ZM42.1094 15.4688C42.1094 16.1525 41.8378 16.8083 41.3543 17.2918C40.8708 17.7753 40.215 18.0469 39.5312 18.0469C38.8475 18.0469 38.1917 17.7753 37.7082 17.2918C37.2247 16.8083 36.9531 16.1525 36.9531 15.4688C36.9531 14.785 37.2247 14.1292 37.7082 13.6457C38.1917 13.1622 38.8475 12.8906 39.5312 12.8906C40.215 12.8906 40.8708 13.1622 41.3543 13.6457C41.8378 14.1292 42.1094 14.785 42.1094 15.4688ZM10.3125 24.9219C10.9963 24.9219 11.652 25.1935 12.1355 25.677C12.619 26.1605 12.8906 26.8162 12.8906 27.5C12.8906 28.1838 12.619 28.8395 12.1355 29.323C11.652 29.8065 10.9963 30.0781 10.3125 30.0781C9.62874 30.0781 8.97298 29.8065 8.48949 29.323C8.006 28.8395 7.73438 28.1838 7.73438 27.5C7.73438 26.8162 8.006 26.1605 8.48949 25.677C8.97298 25.1935 9.62874 24.9219 10.3125 24.9219ZM18.0469 15.4688C18.0469 16.1525 17.7753 16.8083 17.2918 17.2918C16.8083 17.7753 16.1525 18.0469 15.4688 18.0469C14.785 18.0469 14.1292 17.7753 13.6457 17.2918C13.1622 16.8083 12.8906 16.1525 12.8906 15.4688C12.8906 14.785 13.1622 14.1292 13.6457 13.6457C14.1292 13.1622 14.785 12.8906 15.4688 12.8906C16.1525 12.8906 16.8083 13.1622 17.2918 13.6457C17.7753 14.1292 18.0469 14.785 18.0469 15.4688Z" fill="#2575FC"/>
</svg>
