<svg width="77" height="53" viewBox="0 0 77 53" fill="none" xmlns="http://www.w3.org/2000/svg">
<path d="M15.4 3.78571C15.7792 3.78571 16.1547 3.85915 16.505 4.00184C16.8553 4.14453 17.1736 4.35367 17.4418 4.61732C17.7099 4.88097 17.9226 5.19397 18.0677 5.53845C18.2128 5.88293 18.2875 6.25214 18.2875 6.625C18.2875 6.99786 18.2128 7.36707 18.0677 7.71155C17.9226 8.05603 17.7099 8.36903 17.4418 8.63268C17.1736 8.89633 16.8553 9.10547 16.505 9.24816C16.1547 9.39085 15.7792 9.46429 15.4 9.46429C15.0208 9.46429 14.6453 9.39085 14.295 9.24816C13.9447 9.10547 13.6264 8.89633 13.3582 8.63268C13.0901 8.36903 12.8774 8.05603 12.7323 7.71155C12.5872 7.36707 12.5125 6.99786 12.5125 6.625C12.5125 6.25214 12.5872 5.88293 12.7323 5.53845C12.8774 5.19397 13.0901 4.88097 13.3582 4.61732C13.6264 4.35367 13.9447 4.14453 14.295 4.00184C14.6453 3.85915 15.0208 3.78571 15.4 3.78571ZM15.4 13.25C16.2848 13.25 17.1609 13.0786 17.9783 12.7457C18.7958 12.4128 19.5385 11.9248 20.1641 11.3096C20.7898 10.6944 21.286 9.96406 21.6246 9.16028C21.9632 8.3565 22.1375 7.49501 22.1375 6.625C22.1375 5.75499 21.9632 4.8935 21.6246 4.08972C21.286 3.28594 20.7898 2.55561 20.1641 1.94042C19.5385 1.32523 18.7958 0.837235 17.9783 0.504298C17.1609 0.171361 16.2848 -1.29641e-08 15.4 0C14.5152 -1.29641e-08 13.6391 0.171361 12.8217 0.504298C12.0042 0.837235 11.2615 1.32523 10.6359 1.94042C10.0102 2.55561 9.51395 3.28594 9.17536 4.08972C8.83677 4.8935 8.6625 5.75499 8.6625 6.625C8.6625 7.49501 8.83677 8.3565 9.17536 9.16028C9.51395 9.96406 10.0102 10.6944 10.6359 11.3096C11.2615 11.9248 12.0042 12.4128 12.8217 12.7457C13.6391 13.0786 14.5152 13.25 15.4 13.25ZM0 29.3393C0 34.4618 3.17625 38.8509 7.7 40.6964V46.375C7.7 47.9484 8.98734 49.2143 10.5875 49.2143H20.2125C21.8127 49.2143 23.1 47.9484 23.1 46.375V41.6429C23.1 40.6018 22.2337 39.75 21.175 39.75C20.1162 39.75 19.25 40.6018 19.25 41.6429V45.4286H11.55V20.8687C11.8628 20.8333 12.1877 20.8214 12.5125 20.8214H18.2875C19.4064 20.8214 20.4652 21.0225 21.4397 21.4011C22.4262 21.7797 23.5452 21.2946 23.9302 20.3246C24.3152 19.3545 23.8219 18.2542 22.8353 17.8757C21.4277 17.3315 19.8877 17.0357 18.2875 17.0357H12.5125C5.60656 17.0357 0 22.5487 0 29.3393ZM7.7 36.4257C5.37797 34.8996 3.85 32.285 3.85 29.3393C3.85 26.3817 5.37797 23.779 7.7 22.2529V36.4257ZM61.6 3.78571C61.9792 3.78571 62.3547 3.85915 62.705 4.00184C63.0553 4.14453 63.3736 4.35367 63.6418 4.61732C63.9099 4.88097 64.1226 5.19397 64.2677 5.53845C64.4128 5.88293 64.4875 6.25214 64.4875 6.625C64.4875 6.99786 64.4128 7.36707 64.2677 7.71155C64.1226 8.05603 63.9099 8.36903 63.6418 8.63268C63.3736 8.89633 63.0553 9.10547 62.705 9.24816C62.3547 9.39085 61.9792 9.46429 61.6 9.46429C61.2208 9.46429 60.8453 9.39085 60.495 9.24816C60.1447 9.10547 59.8264 8.89633 59.5582 8.63268C59.2901 8.36903 59.0774 8.05603 58.9323 7.71155C58.7872 7.36707 58.7125 6.99786 58.7125 6.625C58.7125 6.25214 58.7872 5.88293 58.9323 5.53845C59.0774 5.19397 59.2901 4.88097 59.5582 4.61732C59.8264 4.35367 60.1447 4.14453 60.495 4.00184C60.8453 3.85915 61.2208 3.78571 61.6 3.78571ZM61.6 13.25C62.4848 13.25 63.3609 13.0786 64.1783 12.7457C64.9958 12.4128 65.7385 11.9248 66.3641 11.3096C66.9898 10.6944 67.486 9.96406 67.8246 9.16028C68.1632 8.3565 68.3375 7.49501 68.3375 6.625C68.3375 5.75499 68.1632 4.8935 67.8246 4.08972C67.486 3.28594 66.9898 2.55561 66.3641 1.94042C65.7385 1.32523 64.9958 0.837235 64.1783 0.504298C63.3609 0.171361 62.4848 -1.29641e-08 61.6 0C60.7152 -1.29641e-08 59.8391 0.171361 59.0217 0.504298C58.2042 0.837235 57.4615 1.32523 56.8359 1.94042C56.2102 2.55561 55.714 3.28594 55.3754 4.08972C55.0368 4.8935 54.8625 5.75499 54.8625 6.625C54.8625 7.49501 55.0368 8.3565 55.3754 9.16028C55.714 9.96406 56.2102 10.6944 56.8359 11.3096C57.4615 11.9248 58.2042 12.4128 59.0217 12.7457C59.8391 13.0786 60.7152 13.25 61.6 13.25ZM77 29.3393C77 22.5487 71.3934 17.0357 64.4875 17.0357H58.7125C57.1123 17.0357 55.5723 17.3315 54.1647 17.8757C53.1781 18.2542 52.6848 19.3545 53.0698 20.3246C53.4548 21.2946 54.5737 21.7797 55.5603 21.4011C56.5348 21.0225 57.5936 20.8214 58.7125 20.8214H64.4875C64.8123 20.8214 65.1372 20.8333 65.45 20.8687V45.4286H57.75V41.6429C57.75 40.6018 56.8837 39.75 55.825 39.75C54.7662 39.75 53.9 40.6018 53.9 41.6429V46.375C53.9 47.9484 55.1873 49.2143 56.7875 49.2143H66.4125C68.0127 49.2143 69.3 47.9484 69.3 46.375V40.6964C73.8237 38.8391 77 34.4618 77 29.3393ZM69.3 36.4257V22.2529C71.622 23.779 73.15 26.3817 73.15 29.3393C73.15 32.285 71.622 34.8996 69.3 36.4257ZM34.65 7.57143C34.65 6.56739 35.0556 5.60448 35.7776 4.89452C36.4997 4.18457 37.4789 3.78571 38.5 3.78571C39.5211 3.78571 40.5003 4.18457 41.2224 4.89452C41.9444 5.60448 42.35 6.56739 42.35 7.57143C42.35 8.57546 41.9444 9.53837 41.2224 10.2483C40.5003 10.9583 39.5211 11.3571 38.5 11.3571C37.4789 11.3571 36.4997 10.9583 35.7776 10.2483C35.0556 9.53837 34.65 8.57546 34.65 7.57143ZM46.2 7.57143C46.2 5.56336 45.3887 3.63754 43.9447 2.21762C42.5007 0.797702 40.5422 0 38.5 0C36.4578 0 34.4993 0.797702 33.0553 2.21762C31.6112 3.63754 30.8 5.56336 30.8 7.57143C30.8 9.5795 31.6112 11.5053 33.0553 12.9252C34.4993 14.3452 36.4578 15.1429 38.5 15.1429C40.5422 15.1429 42.5007 14.3452 43.9447 12.9252C45.3887 11.5053 46.2 9.5795 46.2 7.57143ZM36.575 18.9286C29.6691 18.9286 24.0625 24.4415 24.0625 31.2321C24.0625 35.9761 26.7936 40.0931 30.8 42.1516V50.1607C30.8 51.7342 32.0873 53 33.6875 53H43.3125C44.9127 53 46.2 51.7342 46.2 50.1607V42.1516C50.2064 40.1049 52.9375 35.9879 52.9375 31.2321C52.9375 24.4415 47.3309 18.9286 40.425 18.9286H36.575ZM30.8 24.8792V37.585C29.0314 36.0234 27.9125 33.752 27.9125 31.2321C27.9125 28.7123 29.0314 26.4408 30.8 24.8792ZM34.65 49.2143V22.9272C35.2636 22.7853 35.9133 22.7143 36.575 22.7143H40.425C41.0867 22.7143 41.7364 22.7853 42.35 22.9272V49.2143H34.65ZM46.2 37.585V24.8792C47.9686 26.4408 49.0875 28.7004 49.0875 31.2321C49.0875 33.752 47.9686 36.0234 46.2 37.585Z" fill="#2575FC"/>
</svg>
