<svg width="54" height="54" viewBox="0 0 54 54" fill="none" xmlns="http://www.w3.org/2000/svg">
<path d="M3.65977 20.246L3.51211 20.6046C3.42773 20.8155 3.38555 21.0264 3.38555 21.2583V28.6819C3.38555 29.6098 4.14492 30.3691 5.07305 30.3691H48.9375C49.8656 30.3691 50.625 29.6098 50.625 28.6819V21.2583C50.625 21.0369 50.5828 20.8155 50.4984 20.6046L50.3508 20.246H42.5883C41.9449 20.246 41.3648 20.6046 41.0801 21.174L39.5719 24.1898C38.707 25.9086 36.9563 26.9947 35.0367 26.9947H18.9633C17.0438 26.9947 15.293 25.9086 14.4387 24.2004L12.9305 21.1845C12.6457 20.6151 12.0551 20.2566 11.4223 20.2566H3.65977V20.246ZM5.0625 16.8717H11.4117C13.3312 16.8717 15.082 17.9578 15.9363 19.6661L17.4445 22.6819C17.7293 23.2513 18.3199 23.6098 18.9527 23.6098H35.0367C35.6801 23.6098 36.2602 23.2513 36.5449 22.6819L38.0531 19.6661C38.9074 17.9473 40.6688 16.8717 42.5777 16.8717H48.9375L43.7484 4.40773C43.4848 3.77504 42.873 3.37434 42.1875 3.37434H11.8125C11.127 3.37434 10.5152 3.78559 10.2516 4.40773L5.0625 16.8717ZM0.390234 19.3076L7.14023 3.11072C7.9207 1.23374 9.76641 0 11.8125 0H42.1875C44.2336 0 46.0793 1.23374 46.8598 3.11072L53.6098 19.3076C53.8629 19.9192 54 20.5835 54 21.2583V28.6819C54 31.4763 51.7324 33.7434 48.9375 33.7434H5.0625C2.26758 33.7434 0 31.4763 0 28.6819V21.2583C0 20.594 0.137109 19.9297 0.390234 19.3076ZM12.0551 40.4921H5.0625C4.13437 40.4921 3.375 41.2513 3.375 42.1793V48.9279C3.375 49.8559 4.13437 50.6151 5.0625 50.6151H48.9375C49.8656 50.6151 50.625 49.8559 50.625 48.9279V42.1793C50.625 41.2513 49.8656 40.4921 48.9375 40.4921H41.9449C41.3016 40.4921 40.7215 40.8506 40.4367 41.42L38.918 44.4464L35.9016 42.9385L37.4098 39.9227C38.2641 38.2039 40.0254 37.1283 41.9344 37.1283H48.9375C51.7324 37.1283 54 39.3954 54 42.1898V48.9385C54 51.7329 51.7324 54 48.9375 54H5.0625C2.26758 54 0 51.7329 0 48.9385V42.1793C0 39.3849 2.26758 37.1178 5.0625 37.1178H12.0551C13.9746 37.1178 15.7254 38.2039 16.5797 39.9121L18.0879 42.9279C18.3727 43.4974 18.9633 43.8559 19.5961 43.8559H34.3934C35.0367 43.8559 35.6168 43.4974 35.9016 42.9279L38.918 44.4464C38.0637 46.1652 36.3023 47.2408 34.3934 47.2408H19.6066C17.6871 47.2408 15.9363 46.1547 15.082 44.4464L13.5738 41.4306C13.2891 40.8612 12.6984 40.5026 12.0656 40.5026L12.0551 40.4921Z" fill="#2575FC"/>
</svg>
